<svg width="105" height="44" viewBox="0 0 105 44" fill="none" xmlns="http://www.w3.org/2000/svg">
<mask id="path-1-outside-1_85_307" maskUnits="userSpaceOnUse" x="-1" y="5" width="106" height="24" fill="black">
<rect fill="white" x="-1" y="5" width="106" height="24"/>
<path d="M1.18056 27L4.52546 6.85185H6.96528L5.46991 15.8241H16.213L17.7083 6.85185H20.1481L16.8032 27H14.3634L15.8588 17.9884H5.11574L3.62037 27H1.18056ZM27.6102 27.3148C26.2198 27.3148 25.0557 26.9836 24.1178 26.3212C23.1799 25.6588 22.5175 24.7307 22.1305 23.537C21.7501 22.3434 21.6878 20.9529 21.9436 19.3657C22.1928 17.8179 22.688 16.4701 23.4291 15.3223C24.1768 14.168 25.1048 13.276 26.2133 12.6464C27.3282 12.0102 28.5547 11.6921 29.8926 11.6921C31.2831 11.6921 32.444 12.0266 33.3753 12.6956C34.3132 13.358 34.9756 14.2894 35.3626 15.4896C35.7495 16.6833 35.8151 18.0802 35.5593 19.6806C35.3101 21.2153 34.8084 22.5565 34.0541 23.7043C33.3064 24.8455 32.3784 25.7342 31.27 26.3704C30.1681 27 28.9482 27.3148 27.6102 27.3148ZM27.6496 25.2292C28.7121 25.2292 29.6336 24.957 30.4141 24.4126C31.2011 23.8682 31.8373 23.1501 32.3226 22.2581C32.8145 21.3661 33.1457 20.402 33.3163 19.3657C33.4737 18.3819 33.4671 17.467 33.2966 16.6209C33.1261 15.7683 32.7621 15.0829 32.2046 14.5648C31.6471 14.0401 30.8633 13.7778 29.8533 13.7778C28.7908 13.7778 27.8627 14.0532 27.0692 14.6042C26.2821 15.1551 25.6459 15.8798 25.1606 16.7784C24.6752 17.6769 24.3506 18.6443 24.1866 19.6806C24.0292 20.6644 24.0325 21.5793 24.1965 22.4253C24.367 23.2649 24.731 23.9437 25.2885 24.4618C25.8525 24.9734 26.6396 25.2292 27.6496 25.2292ZM46.9935 11.8889L46.6787 13.8565H38.8477L39.1625 11.8889H46.9935ZM42.0352 8.26852H44.3569L41.9564 22.6713C41.8515 23.3272 41.8679 23.8191 42.0056 24.147C42.1499 24.4684 42.3664 24.6848 42.6549 24.7963C42.9501 24.9012 43.2682 24.9537 43.6092 24.9537C43.865 24.9537 44.0749 24.9406 44.2389 24.9144C44.4028 24.8816 44.534 24.8553 44.6324 24.8356L44.7898 26.9213C44.6127 26.9803 44.3733 27.0394 44.0716 27.0984C43.7765 27.164 43.4125 27.1968 42.9796 27.1968C42.3237 27.1968 41.7072 27.0557 41.1301 26.7737C40.5529 26.4917 40.1102 26.0621 39.8019 25.485C39.4937 24.9078 39.4117 24.1798 39.556 23.3009L42.0352 8.26852ZM54.1014 27.3148C52.652 27.3148 51.455 26.9934 50.5106 26.3507C49.5661 25.7014 48.907 24.7963 48.5331 23.6354C48.1593 22.468 48.1003 21.1103 48.356 19.5625C48.6118 18.0147 49.1201 16.6505 49.8809 15.4699C50.6417 14.2828 51.5895 13.358 52.7241 12.6956C53.8587 12.0266 55.1049 11.6921 56.4625 11.6921C57.2496 11.6921 58.0071 11.8233 58.7351 12.0856C59.4631 12.348 60.0927 12.7743 60.624 13.3646C61.1552 13.9483 61.5258 14.7222 61.7357 15.6863C61.9456 16.6505 61.9324 17.8376 61.6963 19.2477L61.5389 20.2315H49.8908L50.2056 18.2245H59.4926C59.6435 17.3719 59.6041 16.6111 59.3746 15.9421C59.1516 15.2731 58.7613 14.7452 58.2038 14.3582C57.6529 13.9713 56.9544 13.7778 56.1084 13.7778C55.2361 13.7778 54.4228 14.0139 53.6685 14.4861C52.9143 14.9518 52.2847 15.5421 51.7797 16.2569C51.2746 16.9653 50.9598 17.6867 50.8352 18.4213L50.5598 20.1528C50.363 21.4055 50.3925 22.4024 50.6483 23.1435C50.9106 23.8846 51.3665 24.4192 52.0158 24.7471C52.6651 25.0685 53.4783 25.2292 54.4556 25.2292C55.0787 25.2292 55.6525 25.1439 56.1772 24.9734C56.7019 24.7963 57.1709 24.534 57.5841 24.1863C57.9973 23.8322 58.3449 23.3927 58.6269 22.8681L60.7519 23.4977C60.3912 24.2585 59.8829 24.9275 59.227 25.5046C58.5777 26.0752 57.8169 26.5212 56.9446 26.8426C56.0788 27.1574 55.1311 27.3148 54.1014 27.3148ZM69.6503 6.85185L66.3054 27H63.9836L67.3286 6.85185H69.6503ZM70.7546 22.8681L71.0694 20.8611L82.2454 6.85185H83.7014L83.1898 9.96065H82.206L73.7454 20.5463V20.7037H85.669L85.3148 22.8681H70.7546ZM79.5301 27L80.3171 22.2384L80.4745 21.3333L82.875 6.85185H85.1968L81.8519 27H79.5301ZM98.8789 20.8218L100.374 11.8889H102.696L100.178 27H97.8558L98.2886 24.4421H98.1312C97.659 25.2095 96.9999 25.8621 96.1538 26.3999C95.3077 26.9311 94.3141 27.1968 93.1729 27.1968C92.2284 27.1968 91.4217 26.9902 90.7527 26.577C90.0903 26.1572 89.6181 25.5276 89.3361 24.6881C89.0606 23.842 89.0278 22.7762 89.2377 21.4907L90.8511 11.8889H93.1729L91.5988 21.3333C91.4217 22.4352 91.589 23.314 92.1005 23.9699C92.6121 24.6258 93.35 24.9537 94.3141 24.9537C94.8912 24.9537 95.5012 24.8061 96.1439 24.511C96.7933 24.2159 97.3704 23.7633 97.8754 23.1534C98.387 22.5434 98.7215 21.7662 98.8789 20.8218Z"/>
</mask>
<path d="M1.18056 27L4.52546 6.85185H6.96528L5.46991 15.8241H16.213L17.7083 6.85185H20.1481L16.8032 27H14.3634L15.8588 17.9884H5.11574L3.62037 27H1.18056ZM27.6102 27.3148C26.2198 27.3148 25.0557 26.9836 24.1178 26.3212C23.1799 25.6588 22.5175 24.7307 22.1305 23.537C21.7501 22.3434 21.6878 20.9529 21.9436 19.3657C22.1928 17.8179 22.688 16.4701 23.4291 15.3223C24.1768 14.168 25.1048 13.276 26.2133 12.6464C27.3282 12.0102 28.5547 11.6921 29.8926 11.6921C31.2831 11.6921 32.444 12.0266 33.3753 12.6956C34.3132 13.358 34.9756 14.2894 35.3626 15.4896C35.7495 16.6833 35.8151 18.0802 35.5593 19.6806C35.3101 21.2153 34.8084 22.5565 34.0541 23.7043C33.3064 24.8455 32.3784 25.7342 31.27 26.3704C30.1681 27 28.9482 27.3148 27.6102 27.3148ZM27.6496 25.2292C28.7121 25.2292 29.6336 24.957 30.4141 24.4126C31.2011 23.8682 31.8373 23.1501 32.3226 22.2581C32.8145 21.3661 33.1457 20.402 33.3163 19.3657C33.4737 18.3819 33.4671 17.467 33.2966 16.6209C33.1261 15.7683 32.7621 15.0829 32.2046 14.5648C31.6471 14.0401 30.8633 13.7778 29.8533 13.7778C28.7908 13.7778 27.8627 14.0532 27.0692 14.6042C26.2821 15.1551 25.6459 15.8798 25.1606 16.7784C24.6752 17.6769 24.3506 18.6443 24.1866 19.6806C24.0292 20.6644 24.0325 21.5793 24.1965 22.4253C24.367 23.2649 24.731 23.9437 25.2885 24.4618C25.8525 24.9734 26.6396 25.2292 27.6496 25.2292ZM46.9935 11.8889L46.6787 13.8565H38.8477L39.1625 11.8889H46.9935ZM42.0352 8.26852H44.3569L41.9564 22.6713C41.8515 23.3272 41.8679 23.8191 42.0056 24.147C42.1499 24.4684 42.3664 24.6848 42.6549 24.7963C42.9501 24.9012 43.2682 24.9537 43.6092 24.9537C43.865 24.9537 44.0749 24.9406 44.2389 24.9144C44.4028 24.8816 44.534 24.8553 44.6324 24.8356L44.7898 26.9213C44.6127 26.9803 44.3733 27.0394 44.0716 27.0984C43.7765 27.164 43.4125 27.1968 42.9796 27.1968C42.3237 27.1968 41.7072 27.0557 41.1301 26.7737C40.5529 26.4917 40.1102 26.0621 39.8019 25.485C39.4937 24.9078 39.4117 24.1798 39.556 23.3009L42.0352 8.26852ZM54.1014 27.3148C52.652 27.3148 51.455 26.9934 50.5106 26.3507C49.5661 25.7014 48.907 24.7963 48.5331 23.6354C48.1593 22.468 48.1003 21.1103 48.356 19.5625C48.6118 18.0147 49.1201 16.6505 49.8809 15.4699C50.6417 14.2828 51.5895 13.358 52.7241 12.6956C53.8587 12.0266 55.1049 11.6921 56.4625 11.6921C57.2496 11.6921 58.0071 11.8233 58.7351 12.0856C59.4631 12.348 60.0927 12.7743 60.624 13.3646C61.1552 13.9483 61.5258 14.7222 61.7357 15.6863C61.9456 16.6505 61.9324 17.8376 61.6963 19.2477L61.5389 20.2315H49.8908L50.2056 18.2245H59.4926C59.6435 17.3719 59.6041 16.6111 59.3746 15.9421C59.1516 15.2731 58.7613 14.7452 58.2038 14.3582C57.6529 13.9713 56.9544 13.7778 56.1084 13.7778C55.2361 13.7778 54.4228 14.0139 53.6685 14.4861C52.9143 14.9518 52.2847 15.5421 51.7797 16.2569C51.2746 16.9653 50.9598 17.6867 50.8352 18.4213L50.5598 20.1528C50.363 21.4055 50.3925 22.4024 50.6483 23.1435C50.9106 23.8846 51.3665 24.4192 52.0158 24.7471C52.6651 25.0685 53.4783 25.2292 54.4556 25.2292C55.0787 25.2292 55.6525 25.1439 56.1772 24.9734C56.7019 24.7963 57.1709 24.534 57.5841 24.1863C57.9973 23.8322 58.3449 23.3927 58.6269 22.8681L60.7519 23.4977C60.3912 24.2585 59.8829 24.9275 59.227 25.5046C58.5777 26.0752 57.8169 26.5212 56.9446 26.8426C56.0788 27.1574 55.1311 27.3148 54.1014 27.3148ZM69.6503 6.85185L66.3054 27H63.9836L67.3286 6.85185H69.6503ZM70.7546 22.8681L71.0694 20.8611L82.2454 6.85185H83.7014L83.1898 9.96065H82.206L73.7454 20.5463V20.7037H85.669L85.3148 22.8681H70.7546ZM79.5301 27L80.3171 22.2384L80.4745 21.3333L82.875 6.85185H85.1968L81.8519 27H79.5301ZM98.8789 20.8218L100.374 11.8889H102.696L100.178 27H97.8558L98.2886 24.4421H98.1312C97.659 25.2095 96.9999 25.8621 96.1538 26.3999C95.3077 26.9311 94.3141 27.1968 93.1729 27.1968C92.2284 27.1968 91.4217 26.9902 90.7527 26.577C90.0903 26.1572 89.6181 25.5276 89.3361 24.6881C89.0606 23.842 89.0278 22.7762 89.2377 21.4907L90.8511 11.8889H93.1729L91.5988 21.3333C91.4217 22.4352 91.589 23.314 92.1005 23.9699C92.6121 24.6258 93.35 24.9537 94.3141 24.9537C94.8912 24.9537 95.5012 24.8061 96.1439 24.511C96.7933 24.2159 97.3704 23.7633 97.8754 23.1534C98.387 22.5434 98.7215 21.7662 98.8789 20.8218Z" fill="black"/>
<path d="M1.18056 27L-0.061701 26.7938L-0.304996 28.2593H1.18056V27ZM4.52546 6.85185V5.59259H3.45803L3.28321 6.64562L4.52546 6.85185ZM6.96528 6.85185L8.2074 7.05887L8.45178 5.59259H6.96528V6.85185ZM5.46991 15.8241L4.22778 15.6171L3.9834 17.0833H5.46991V15.8241ZM16.213 15.8241V17.0833H17.2797L17.4551 16.0311L16.213 15.8241ZM17.7083 6.85185V5.59259H16.6416L16.4662 6.64483L17.7083 6.85185ZM20.1481 6.85185L21.3904 7.05809L21.6337 5.59259H20.1481V6.85185ZM16.8032 27V28.2593H17.8707L18.0455 27.2062L16.8032 27ZM14.3634 27L13.1212 26.7939L12.878 28.2593H14.3634V27ZM15.8588 17.9884L17.1011 18.1946L17.3442 16.7292H15.8588V17.9884ZM5.11574 17.9884V16.7292H4.04822L3.87347 17.7823L5.11574 17.9884ZM3.62037 27V28.2593H4.68789L4.86264 27.2061L3.62037 27ZM2.42281 27.2062L5.76772 7.05809L3.28321 6.64562L-0.061701 26.7938L2.42281 27.2062ZM4.52546 8.11111H6.96528V5.59259H4.52546V8.11111ZM5.72315 6.64483L4.22778 15.6171L6.71203 16.0311L8.2074 7.05887L5.72315 6.64483ZM5.46991 17.0833H16.213V14.5648H5.46991V17.0833ZM17.4551 16.0311L18.9505 7.05887L16.4662 6.64483L14.9708 15.6171L17.4551 16.0311ZM17.7083 8.11111H20.1481V5.59259H17.7083V8.11111ZM18.9059 6.64562L15.561 26.7938L18.0455 27.2062L21.3904 7.05809L18.9059 6.64562ZM16.8032 25.7407H14.3634V28.2593H16.8032V25.7407ZM15.6057 27.2061L17.1011 18.1946L14.6165 17.7823L13.1212 26.7939L15.6057 27.2061ZM15.8588 16.7292H5.11574V19.2477H15.8588V16.7292ZM3.87347 17.7823L2.3781 26.7939L4.86264 27.2061L6.35801 18.1946L3.87347 17.7823ZM3.62037 25.7407H1.18056V28.2593H3.62037V25.7407ZM22.1305 23.537L20.9307 23.9194L20.9326 23.9254L22.1305 23.537ZM21.9436 19.3657L23.1868 19.5661L23.1868 19.5659L21.9436 19.3657ZM23.4291 15.3223L22.3722 14.6377L22.3712 14.6392L23.4291 15.3223ZM26.2133 12.6464L26.8352 13.7413L26.8373 13.7402L26.2133 12.6464ZM33.3753 12.6956L32.6406 13.7184L32.6488 13.7242L33.3753 12.6956ZM35.3626 15.4896L34.164 15.876L34.1647 15.8779L35.3626 15.4896ZM35.5593 19.6806L36.8023 19.8824L36.8028 19.8793L35.5593 19.6806ZM34.0541 23.7043L33.0017 23.0127L33.0008 23.0142L34.0541 23.7043ZM31.27 26.3704L31.8947 27.4637L31.8968 27.4625L31.27 26.3704ZM30.4141 24.4126L29.6977 23.3769L29.6937 23.3798L30.4141 24.4126ZM32.3226 22.2581L31.2199 21.65L31.2165 21.6562L32.3226 22.2581ZM33.3163 19.3657L34.5588 19.5702L34.5597 19.5647L33.3163 19.3657ZM33.2966 16.6209L32.0618 16.8679L32.0621 16.8697L33.2966 16.6209ZM32.2046 14.5648L31.3415 15.4818L31.3473 15.4872L32.2046 14.5648ZM27.0692 14.6042L26.351 13.5697L26.347 13.5725L27.0692 14.6042ZM25.1606 16.7784L24.0526 16.1799L24.0526 16.1799L25.1606 16.7784ZM24.1866 19.6806L25.4301 19.8795L25.4304 19.8774L24.1866 19.6806ZM24.1965 22.4253L22.9602 22.6649L22.9624 22.676L24.1965 22.4253ZM25.2885 24.4618L24.4312 25.3842L24.4368 25.3894L24.4425 25.3946L25.2885 24.4618ZM27.6102 26.0556C26.4241 26.0556 25.5281 25.7756 24.8442 25.2926L23.3913 27.3498C24.5832 28.1916 26.0155 28.5741 27.6102 28.5741V26.0556ZM24.8442 25.2926C24.1494 24.8018 23.6397 24.109 23.3284 23.1487L20.9326 23.9254C21.3952 25.3524 22.2104 26.5157 23.3913 27.3498L24.8442 25.2926ZM23.3303 23.1547C23.0244 22.1948 22.9538 21.0119 23.1868 19.5661L20.7004 19.1654C20.4218 20.894 20.4758 22.4919 20.9307 23.9194L23.3303 23.1547ZM23.1868 19.5659C23.4124 18.1649 23.8534 16.9867 24.487 16.0054L22.3712 14.6392C21.5226 15.9535 20.9732 17.4709 20.7003 19.1656L23.1868 19.5659ZM24.486 16.0069C25.1327 15.0086 25.9163 14.2633 26.8352 13.7413L25.5913 11.5515C24.2934 12.2887 23.2209 13.3274 22.3722 14.6377L24.486 16.0069ZM26.8373 13.7402C27.754 13.2171 28.7639 12.9514 29.8926 12.9514V10.4329C28.3454 10.4329 26.9024 10.8033 25.5892 11.5527L26.8373 13.7402ZM29.8926 12.9514C31.0766 12.9514 31.9656 13.2334 32.6406 13.7184L34.1099 11.6729C32.9224 10.8198 31.4895 10.4329 29.8926 10.4329V12.9514ZM32.6488 13.7242C33.3419 14.2137 33.8521 14.9083 34.164 15.876L36.5611 15.1032C36.0991 13.6704 35.2844 12.5023 34.1018 11.667L32.6488 13.7242ZM34.1647 15.8779C34.475 16.8352 34.5491 18.0226 34.3158 19.4818L36.8028 19.8793C37.0811 18.1379 37.024 16.5313 36.5604 15.1013L34.1647 15.8779ZM34.3163 19.4787C34.0918 20.8617 33.6466 22.0314 33.0017 23.0127L35.1065 24.3958C35.9701 23.0817 36.5284 21.5689 36.8023 19.8824L34.3163 19.4787ZM33.0008 23.0142C32.3541 24.0012 31.5682 24.7472 30.6431 25.2782L31.8968 27.4625C33.1885 26.7211 34.2587 25.6898 35.1074 24.3944L33.0008 23.0142ZM30.6452 25.277C29.7441 25.792 28.7414 26.0556 27.6102 26.0556V28.5741C29.155 28.5741 30.5922 28.208 31.8947 27.4637L30.6452 25.277ZM27.6496 26.4884C28.9384 26.4884 30.1184 26.1542 31.1345 25.4455L29.6937 23.3798C29.1488 23.7598 28.4858 23.9699 27.6496 23.9699V26.4884ZM31.1304 25.4483C32.0894 24.785 32.8551 23.9142 33.4287 22.86L31.2165 21.6562C30.8194 22.386 30.3128 22.9515 29.6977 23.377L31.1304 25.4483ZM33.4253 22.8662C33.9886 21.8447 34.3657 20.7436 34.5588 19.5702L32.0737 19.1613C31.9257 20.0605 31.6404 20.8875 31.2199 21.65L33.4253 22.8662ZM34.5597 19.5647C34.7373 18.4549 34.7355 17.3866 34.531 16.3721L32.0621 16.8697C32.1987 17.5474 32.2101 18.309 32.0728 19.1668L34.5597 19.5647ZM34.5314 16.374C34.3167 15.3005 33.8398 14.3654 33.0619 13.6424L31.3473 15.4872C31.6844 15.8005 31.9354 16.2361 32.0618 16.8679L34.5314 16.374ZM33.0676 13.6478C32.2098 12.8404 31.0789 12.5185 29.8533 12.5185V15.037C30.6478 15.037 31.0844 15.2398 31.3415 15.4818L33.0676 13.6478ZM29.8533 12.5185C28.5609 12.5185 27.3765 12.8579 26.351 13.5697L27.7873 15.6386C28.349 15.2486 29.0207 15.037 29.8533 15.037V12.5185ZM26.347 13.5725C25.3894 14.2429 24.6251 15.1201 24.0526 16.1799L26.2686 17.3768C26.6668 16.6396 27.1749 16.0673 27.7913 15.6358L26.347 13.5725ZM24.0526 16.1799C23.4978 17.2071 23.1284 18.3108 22.9428 19.4838L25.4304 19.8774C25.5728 18.9778 25.8527 18.1467 26.2686 17.3768L24.0526 16.1799ZM22.9432 19.4816C22.7661 20.5885 22.7642 21.6536 22.9602 22.6649L25.4327 22.1858C25.3008 21.505 25.2924 20.7402 25.4301 19.8795L22.9432 19.4816ZM22.9624 22.676C23.1784 23.7395 23.6573 24.6649 24.4312 25.3842L26.1458 23.5394C25.8047 23.2224 25.5555 22.7902 25.4305 22.1747L22.9624 22.676ZM24.4425 25.3946C25.3052 26.177 26.4309 26.4884 27.6496 26.4884V23.9699C26.8482 23.9699 26.3998 23.7697 26.1345 23.529L24.4425 25.3946ZM46.9935 11.8889L48.2369 12.0878L48.4702 10.6296H46.9935V11.8889ZM46.6787 13.8565V15.1157H47.7525L47.9221 14.0554L46.6787 13.8565ZM38.8477 13.8565L37.6042 13.6575L37.3709 15.1157H38.8477V13.8565ZM39.1625 11.8889V10.6296H38.0887L37.919 11.6899L39.1625 11.8889ZM42.0352 8.26852V7.00926H40.9666L40.7927 8.06361L42.0352 8.26852ZM44.3569 8.26852L45.599 8.47554L45.8434 7.00926H44.3569V8.26852ZM41.9564 22.6713L40.7143 22.4643L40.713 22.4723L41.9564 22.6713ZM42.0056 24.147L40.8446 24.6346L40.8506 24.6488L40.8569 24.6628L42.0056 24.147ZM42.6549 24.7963L42.2011 25.9709L42.217 25.9771L42.2331 25.9828L42.6549 24.7963ZM44.2389 24.9144L44.4378 26.1578L44.4619 26.1539L44.4858 26.1492L44.2389 24.9144ZM44.6324 24.8356L45.8881 24.7409L45.781 23.3217L44.3854 23.6008L44.6324 24.8356ZM44.7898 26.9213L45.188 28.1159L46.1194 27.8055L46.0455 26.8265L44.7898 26.9213ZM44.0716 27.0984L43.8298 25.8626L43.8141 25.8656L43.7984 25.8691L44.0716 27.0984ZM41.1301 26.7737L41.6829 25.6423L41.6829 25.6423L41.1301 26.7737ZM39.8019 25.485L40.9127 24.8917L40.9127 24.8917L39.8019 25.485ZM39.556 23.3009L38.3135 23.096L38.3134 23.0969L39.556 23.3009ZM45.75 11.6899L45.4352 13.6575L47.9221 14.0554L48.2369 12.0878L45.75 11.6899ZM46.6787 12.5972H38.8477V15.1157H46.6787V12.5972ZM40.0911 14.0554L40.4059 12.0878L37.919 11.6899L37.6042 13.6575L40.0911 14.0554ZM39.1625 13.1481H46.9935V10.6296H39.1625V13.1481ZM42.0352 9.52778H44.3569V7.00926H42.0352V9.52778ZM43.1148 8.0615L40.7143 22.4643L43.1986 22.8783L45.599 8.47554L43.1148 8.0615ZM40.713 22.4723C40.5983 23.1895 40.5665 23.9724 40.8446 24.6346L43.1667 23.6594C43.1752 23.6797 43.1535 23.6375 43.1486 23.4902C43.1438 23.3472 43.1561 23.1442 43.1999 22.8702L40.713 22.4723ZM40.8569 24.6628C41.1165 25.2411 41.5595 25.723 42.2011 25.9709L43.1088 23.6217C43.1156 23.6243 43.126 23.6292 43.1378 23.6369C43.1497 23.6446 43.1595 23.6528 43.1666 23.6599C43.1816 23.6749 43.1732 23.6731 43.1544 23.6312L40.8569 24.6628ZM42.2331 25.9828C42.6752 26.14 43.1372 26.213 43.6092 26.213V23.6944C43.3992 23.6944 43.225 23.6625 43.0768 23.6098L42.2331 25.9828ZM43.6092 26.213C43.9001 26.213 44.1829 26.1986 44.4378 26.1578L44.0399 23.6709C43.9669 23.6826 43.8299 23.6944 43.6092 23.6944V26.213ZM44.4858 26.1492C44.6498 26.1164 44.781 26.0901 44.8793 26.0705L44.3854 23.6008C44.287 23.6205 44.1559 23.6468 43.9919 23.6795L44.4858 26.1492ZM43.3767 24.9304L43.5341 27.0161L46.0455 26.8265L45.8881 24.7409L43.3767 24.9304ZM44.3916 25.7267C44.2877 25.7613 44.1077 25.8082 43.8298 25.8626L44.3134 28.3342C44.6389 28.2705 44.9377 28.1994 45.188 28.1159L44.3916 25.7267ZM43.7984 25.8691C43.6223 25.9083 43.3564 25.9375 42.9796 25.9375V28.456C43.4685 28.456 43.9307 28.4197 44.3448 28.3277L43.7984 25.8691ZM42.9796 25.9375C42.5112 25.9375 42.0842 25.8384 41.6829 25.6423L40.5772 27.9051C41.3302 28.2731 42.1363 28.456 42.9796 28.456V25.9375ZM41.6829 25.6423C41.3484 25.4789 41.0987 25.2399 40.9127 24.8917L38.6912 26.0782C39.1217 26.8843 39.7574 27.5046 40.5772 27.9051L41.6829 25.6423ZM40.9127 24.8917C40.7747 24.6333 40.6831 24.2082 40.7986 23.5049L38.3134 23.0969C38.1402 24.1514 38.2127 25.1823 38.6912 26.0782L40.9127 24.8917ZM40.7985 23.5058L43.2776 8.47343L40.7927 8.06361L38.3135 23.096L40.7985 23.5058ZM50.5106 26.3507L49.7971 27.3884L49.8021 27.3917L50.5106 26.3507ZM48.5331 23.6354L47.3339 24.0195L47.3345 24.0214L48.5331 23.6354ZM48.356 19.5625L49.5985 19.7678L49.5985 19.7678L48.356 19.5625ZM49.8809 15.4699L50.9394 16.1521L50.9411 16.1494L49.8809 15.4699ZM52.7241 12.6956L53.359 13.7831L53.3637 13.7804L52.7241 12.6956ZM58.7351 12.0856L59.162 10.901L59.162 10.901L58.7351 12.0856ZM60.624 13.3646L59.688 14.207L59.6927 14.2122L60.624 13.3646ZM61.7357 15.6863L60.5052 15.9542L60.5052 15.9542L61.7357 15.6863ZM61.6963 19.2477L60.4543 19.0397L60.4529 19.0487L61.6963 19.2477ZM61.5389 20.2315V21.4907H62.6127L62.7824 20.4304L61.5389 20.2315ZM49.8908 20.2315L48.6467 20.0363L48.4186 21.4907H49.8908V20.2315ZM50.2056 18.2245V16.9653H49.1285L48.9615 18.0294L50.2056 18.2245ZM59.4926 18.2245V19.4838H60.5486L60.7326 18.4439L59.4926 18.2245ZM59.3746 15.9421L58.1799 16.3404L58.1835 16.3508L59.3746 15.9421ZM58.2038 14.3582L57.4801 15.3887L57.4858 15.3927L58.2038 14.3582ZM53.6685 14.4861L54.3301 15.5576L54.3368 15.5534L53.6685 14.4861ZM51.7797 16.2569L52.805 16.988L52.8082 16.9835L51.7797 16.2569ZM50.8352 18.4213L49.5936 18.2107L49.5916 18.2234L50.8352 18.4213ZM50.5598 20.1528L49.3161 19.9549L49.3157 19.9574L50.5598 20.1528ZM50.6483 23.1435L49.4579 23.5544L49.4612 23.5637L50.6483 23.1435ZM52.0158 24.7471L51.4481 25.8712L51.4572 25.8757L52.0158 24.7471ZM56.1772 24.9734L56.5664 26.171L56.5732 26.1688L56.5799 26.1665L56.1772 24.9734ZM57.5841 24.1863L58.3948 25.15L58.4036 25.1424L57.5841 24.1863ZM58.6269 22.8681L58.9846 21.6607L58.0026 21.3697L57.5177 22.2719L58.6269 22.8681ZM60.7519 23.4977L61.8897 24.0372L62.5199 22.7082L61.1096 22.2903L60.7519 23.4977ZM59.227 25.5046L60.0583 26.4505L60.0589 26.45L59.227 25.5046ZM56.9446 26.8426L57.3749 28.026L57.3799 28.0242L56.9446 26.8426ZM54.1014 26.0556C52.8368 26.0556 51.9048 25.7763 51.2191 25.3096L49.8021 27.3917C51.0053 28.2106 52.4671 28.5741 54.1014 28.5741V26.0556ZM51.224 25.313C50.5241 24.8318 50.0262 24.1636 49.7318 23.2494L47.3345 24.0214C47.7878 25.429 48.6082 26.571 49.7972 27.3884L51.224 25.313ZM49.7324 23.2514C49.4341 22.3199 49.3664 21.1721 49.5985 19.7678L47.1136 19.3572C46.8341 21.0486 46.8845 22.616 47.3339 24.0195L49.7324 23.2514ZM49.5985 19.7678C49.8295 18.3699 50.2822 17.1718 50.9394 16.1521L48.8224 14.7878C47.958 16.1291 47.3942 17.6594 47.1136 19.3572L49.5985 19.7678ZM50.9411 16.1494C51.6025 15.1174 52.4089 14.3378 53.359 13.7831L52.0892 11.6081C50.7701 12.3782 49.681 13.4482 48.8207 14.7904L50.9411 16.1494ZM53.3637 13.7804C54.2984 13.2292 55.3226 12.9514 56.4625 12.9514V10.4329C54.8872 10.4329 53.4191 10.824 52.0845 11.6108L53.3637 13.7804ZM56.4625 12.9514C57.1066 12.9514 57.7195 13.0582 58.3082 13.2703L59.162 10.901C58.2947 10.5884 57.3926 10.4329 56.4625 10.4329V12.9514ZM58.3082 13.2703C58.8356 13.4604 59.2918 13.7668 59.688 14.207L61.56 12.5222C60.8936 11.7818 60.0906 11.2356 59.162 10.901L58.3082 13.2703ZM59.6927 14.2122C60.0421 14.5961 60.3308 15.1528 60.5052 15.9542L62.9661 15.4185C62.7208 14.2916 62.2684 13.3005 61.5553 12.517L59.6927 14.2122ZM60.5052 15.9542C60.6694 16.7084 60.6749 17.7226 60.4544 19.0397L62.9383 19.4556C63.19 17.9526 63.2217 16.5926 62.9661 15.4185L60.5052 15.9542ZM60.4529 19.0487L60.2955 20.0325L62.7824 20.4304L62.9398 19.4466L60.4529 19.0487ZM61.5389 18.9722H49.8908V21.4907H61.5389V18.9722ZM51.1348 20.4266L51.4496 18.4197L48.9615 18.0294L48.6467 20.0363L51.1348 20.4266ZM50.2056 19.4838H59.4926V16.9653H50.2056V19.4838ZM60.7326 18.4439C60.9124 17.4279 60.8784 16.4448 60.5657 15.5334L58.1835 16.3508C58.3299 16.7774 58.3746 17.316 58.2526 18.0052L60.7326 18.4439ZM60.5692 15.5439C60.2638 14.6278 59.712 13.8721 58.9219 13.3237L57.4858 15.3927C57.8107 15.6182 58.0393 15.9185 58.1799 16.3403L60.5692 15.5439ZM58.9276 13.3277C58.1159 12.7576 57.1466 12.5185 56.1084 12.5185V15.037C56.7622 15.037 57.19 15.1849 57.4801 15.3887L58.9276 13.3277ZM56.1084 12.5185C54.9947 12.5185 53.9506 12.8238 53.0003 13.4188L54.3368 15.5534C54.895 15.204 55.4774 15.037 56.1084 15.037V12.5185ZM53.007 13.4146C52.1104 13.9682 51.3553 14.6752 50.7511 15.5304L52.8082 16.9835C53.2141 16.4089 53.7183 15.9353 54.3301 15.5576L53.007 13.4146ZM50.7543 15.5259C50.1573 16.3633 49.755 17.2596 49.5937 18.2107L52.0767 18.6319C52.1646 18.1139 52.392 17.5673 52.805 16.988L50.7543 15.5259ZM49.5916 18.2234L49.3161 19.9549L51.8034 20.3506L52.0788 18.6191L49.5916 18.2234ZM49.3157 19.9574C49.1046 21.3015 49.1058 22.534 49.4579 23.5543L51.8387 22.7327C51.6792 22.2708 51.6214 21.5095 51.8038 20.3482L49.3157 19.9574ZM49.4612 23.5637C49.8221 24.5834 50.4848 25.3846 51.4481 25.8711L52.5835 23.6231C52.2482 23.4537 51.9991 23.1859 51.8354 22.7233L49.4612 23.5637ZM51.4572 25.8757C52.3298 26.3076 53.3489 26.4884 54.4556 26.4884V23.9699C53.6078 23.9699 53.0003 23.8293 52.5744 23.6185L51.4572 25.8757ZM54.4556 26.4884C55.194 26.4884 55.901 26.3873 56.5664 26.171L55.788 23.7758C55.4041 23.9006 54.9633 23.9699 54.4556 23.9699V26.4884ZM56.5799 26.1665C57.2499 25.9404 57.858 25.6015 58.3947 25.15L56.7734 23.2227C56.4838 23.4664 56.154 23.6522 55.7745 23.7802L56.5799 26.1665ZM58.4036 25.1424C58.9454 24.678 59.3875 24.1128 59.7361 23.4642L57.5177 22.2719C57.3022 22.6727 57.0491 22.9863 56.7645 23.2302L58.4036 25.1424ZM58.2691 24.0754L60.3941 24.7051L61.1096 22.2903L58.9846 21.6607L58.2691 24.0754ZM59.614 22.9582C59.3294 23.5585 58.9274 24.0909 58.3951 24.5593L60.0589 26.45C60.8383 25.7641 61.4529 24.9585 61.8897 24.0372L59.614 22.9582ZM58.3957 24.5587C57.8713 25.0196 57.2472 25.3891 56.5093 25.661L57.3799 28.0242C58.3865 27.6534 59.2841 27.1309 60.0583 26.4505L58.3957 24.5587ZM56.5142 25.6591C55.8017 25.9183 55.0015 26.0556 54.1014 26.0556V28.5741C55.2607 28.5741 56.356 28.3966 57.3749 28.026L56.5142 25.6591ZM69.6503 6.85185L70.8926 7.05809L71.1359 5.59259H69.6503V6.85185ZM66.3054 27V28.2593H67.3728L67.5477 27.2062L66.3054 27ZM63.9836 27L62.7414 26.7938L62.4981 28.2593H63.9836V27ZM67.3286 6.85185V5.59259H66.2611L66.0863 6.64562L67.3286 6.85185ZM68.4081 6.64562L65.0632 26.7938L67.5477 27.2062L70.8926 7.05809L68.4081 6.64562ZM66.3054 25.7407H63.9836V28.2593H66.3054V25.7407ZM65.2259 27.2062L68.5708 7.05809L66.0863 6.64562L62.7414 26.7938L65.2259 27.2062ZM67.3286 8.11111H69.6503V5.59259H67.3286V8.11111ZM70.7546 22.8681L69.5106 22.6729L69.2824 24.1273H70.7546V22.8681ZM71.0694 20.8611L70.0851 20.0758L69.8771 20.3365L69.8254 20.666L71.0694 20.8611ZM82.2454 6.85185V5.59259H81.6391L81.261 6.06655L82.2454 6.85185ZM83.7014 6.85185L84.9439 7.05632L85.1848 5.59259H83.7014V6.85185ZM83.1898 9.96065V11.2199H84.2588L84.4324 10.1651L83.1898 9.96065ZM82.206 9.96065V8.70139H81.6004L81.2223 9.17444L82.206 9.96065ZM73.7454 20.5463L72.7617 19.7601L72.4861 20.1049V20.5463H73.7454ZM73.7454 20.7037H72.4861V21.963H73.7454V20.7037ZM85.669 20.7037L86.9117 20.9071L87.1511 19.4444H85.669V20.7037ZM85.3148 22.8681V24.1273H86.3848L86.5575 23.0714L85.3148 22.8681ZM79.5301 27L78.2877 26.7946L78.0456 28.2593H79.5301V27ZM80.3171 22.2384L79.0765 22.0227L79.0747 22.0331L80.3171 22.2384ZM80.4745 21.3333L81.7152 21.5491L81.7168 21.5393L80.4745 21.3333ZM82.875 6.85185V5.59259H81.8073L81.6327 6.64593L82.875 6.85185ZM85.1968 6.85185L86.439 7.05809L86.6823 5.59259H85.1968V6.85185ZM81.8519 27V28.2593H82.9193L83.0941 27.2062L81.8519 27ZM71.9987 23.0632L72.3135 21.0563L69.8254 20.666L69.5106 22.6729L71.9987 23.0632ZM72.0538 21.6464L83.2298 7.63716L81.261 6.06655L70.0851 20.0758L72.0538 21.6464ZM82.2454 8.11111H83.7014V5.59259H82.2454V8.11111ZM82.4588 6.64738L81.9473 9.75618L84.4324 10.1651L84.9439 7.05632L82.4588 6.64738ZM83.1898 8.70139H82.206V11.2199H83.1898V8.70139ZM81.2223 9.17444L72.7617 19.7601L74.729 21.3325L83.1897 10.7469L81.2223 9.17444ZM72.4861 20.5463V20.7037H75.0046V20.5463H72.4861ZM73.7454 21.963H85.669V19.4444H73.7454V21.963ZM84.4263 20.5003L84.0721 22.6647L86.5575 23.0714L86.9117 20.9071L84.4263 20.5003ZM85.3148 21.6088H70.7546V24.1273H85.3148V21.6088ZM80.7725 27.2054L81.5595 22.4438L79.0747 22.0331L78.2877 26.7946L80.7725 27.2054ZM81.5578 22.4542L81.7152 21.5491L79.2339 21.1176L79.0765 22.0227L81.5578 22.4542ZM81.7168 21.5393L84.1173 7.05778L81.6327 6.64593L79.2322 21.1274L81.7168 21.5393ZM82.875 8.11111H85.1968V5.59259H82.875V8.11111ZM83.9545 6.64562L80.6096 26.7938L83.0941 27.2062L86.439 7.05809L83.9545 6.64562ZM81.8519 25.7407H79.5301V28.2593H81.8519V25.7407ZM98.8789 20.8218L97.6369 20.6139L97.6368 20.6147L98.8789 20.8218ZM100.374 11.8889V10.6296H99.3083L99.1323 11.681L100.374 11.8889ZM102.696 11.8889L103.938 12.0959L104.183 10.6296H102.696V11.8889ZM100.178 27V28.2593H101.244L101.42 27.207L100.178 27ZM97.8558 27L96.6141 26.7899L96.3655 28.2593H97.8558V27ZM98.2886 24.4421L99.5302 24.6522L99.7789 23.1829H98.2886V24.4421ZM98.1312 24.4421V23.1829H97.4275L97.0588 23.7822L98.1312 24.4421ZM96.1538 26.3999L96.8234 27.4664L96.8293 27.4626L96.1538 26.3999ZM90.7527 26.577L90.0787 27.6407L90.0848 27.6445L90.091 27.6483L90.7527 26.577ZM89.3361 24.6881L88.1386 25.0779L88.1424 25.0891L89.3361 24.6881ZM89.2377 21.4907L87.9958 21.2821L87.9949 21.2878L89.2377 21.4907ZM90.8511 11.8889V10.6296H89.7858L89.6093 11.6802L90.8511 11.8889ZM93.1729 11.8889L94.415 12.0959L94.6594 10.6296H93.1729V11.8889ZM91.5988 21.3333L90.3567 21.1263L90.3555 21.1335L91.5988 21.3333ZM92.1005 23.9699L93.0935 23.1954L93.0935 23.1954L92.1005 23.9699ZM96.1439 24.511L95.6229 23.3646L95.6185 23.3666L96.1439 24.511ZM97.8754 23.1534L96.9106 22.3441L96.9055 22.3503L97.8754 23.1534ZM100.121 21.0297L101.616 12.0968L99.1323 11.681L97.6369 20.6139L100.121 21.0297ZM100.374 13.1481H102.696V10.6296H100.374V13.1481ZM101.454 11.6819L98.9354 26.793L101.42 27.207L103.938 12.0959L101.454 11.6819ZM100.178 25.7407H97.8558V28.2593H100.178V25.7407ZM99.0974 27.2101L99.5302 24.6522L97.047 24.232L96.6141 26.7899L99.0974 27.2101ZM98.2886 23.1829H98.1312V25.7014H98.2886V23.1829ZM97.0588 23.7822C96.6974 24.3694 96.1815 24.8901 95.4783 25.3372L96.8293 27.4626C97.8182 26.834 98.6206 26.0496 99.2037 25.1021L97.0588 23.7822ZM95.4842 25.3334C94.8661 25.7215 94.1117 25.9375 93.1729 25.9375V28.456C94.5165 28.456 95.7494 28.1407 96.8234 27.4663L95.4842 25.3334ZM93.1729 25.9375C92.4148 25.9375 91.8478 25.7733 91.4145 25.5056L90.091 27.6483C90.9956 28.2071 92.042 28.456 93.1729 28.456V25.9375ZM91.4268 25.5133C91.0399 25.2681 90.7324 24.8901 90.5298 24.2871L88.1424 25.0891C88.5038 26.1651 89.1407 27.0463 90.0787 27.6407L91.4268 25.5133ZM90.5335 24.2982C90.3424 23.7113 90.2891 22.866 90.4805 21.6936L87.9949 21.2878C87.7665 22.6865 87.7789 23.9727 88.1387 25.0779L90.5335 24.2982ZM90.4795 21.6994L92.093 12.0976L89.6093 11.6802L87.9958 21.2821L90.4795 21.6994ZM90.8511 13.1481H93.1729V10.6296H90.8511V13.1481ZM91.9308 11.6819L90.3567 21.1263L92.8409 21.5404L94.415 12.0959L91.9308 11.6819ZM90.3555 21.1335C90.1427 22.4577 90.3146 23.7277 91.1076 24.7444L93.0935 23.1954C92.8633 22.9004 92.7008 22.4126 92.8421 21.5332L90.3555 21.1335ZM91.1076 24.7444C91.8976 25.7572 93.0316 26.213 94.3141 26.213V23.6944C93.6683 23.6944 93.3266 23.4943 93.0935 23.1954L91.1076 24.7444ZM94.3141 26.213C95.1088 26.213 95.8982 26.0095 96.6694 25.6554L95.6185 23.3666C95.1042 23.6027 94.6737 23.6944 94.3141 23.6944V26.213ZM96.665 25.6574C97.5064 25.2749 98.2322 24.697 98.8454 23.9564L96.9055 22.3503C96.5086 22.8297 96.0801 23.1568 95.6229 23.3646L96.665 25.6574ZM98.8403 23.9626C99.5232 23.1483 99.9342 22.15 100.121 21.0288L97.6368 20.6147C97.5088 21.3824 97.2508 21.9385 96.9106 22.3441L98.8403 23.9626Z" fill="black" mask="url(#path-1-outside-1_85_307)"/>
<path d="M9.59659 41L11.2869 30.8182H12.5199L11.7642 35.3523H17.1932L17.9489 30.8182H19.1818L17.4915 41H16.2585L17.0142 36.446H11.5852L10.8295 41H9.59659ZM22.9528 41.1591C22.2501 41.1591 21.6618 40.9917 21.1879 40.657C20.7139 40.3222 20.3791 39.8532 20.1836 39.25C19.9914 38.6468 19.9599 37.9441 20.0891 37.142C20.2151 36.3598 20.4653 35.6787 20.8398 35.0987C21.2177 34.5154 21.6867 34.0646 22.2468 33.7464C22.8103 33.425 23.43 33.2642 24.1062 33.2642C24.8088 33.2642 25.3955 33.4332 25.8661 33.7713C26.3401 34.1061 26.6748 34.5767 26.8704 35.1832C27.0659 35.7865 27.0991 36.4924 26.9698 37.3011C26.8439 38.0767 26.5903 38.7545 26.2092 39.3345C25.8313 39.9112 25.3623 40.3603 24.8022 40.6818C24.2454 41 23.6289 41.1591 22.9528 41.1591ZM22.9727 40.1051C23.5096 40.1051 23.9753 39.9676 24.3697 39.6925C24.7674 39.4174 25.0889 39.0545 25.3342 38.6037C25.5827 38.1529 25.7501 37.6657 25.8363 37.142C25.9158 36.6449 25.9125 36.1825 25.8263 35.755C25.7402 35.3241 25.5562 34.9777 25.2745 34.7159C24.9928 34.4508 24.5967 34.3182 24.0863 34.3182C23.5494 34.3182 23.0804 34.4574 22.6793 34.7358C22.2816 35.0142 21.9601 35.3804 21.7148 35.8345C21.4696 36.2886 21.3055 36.7775 21.2227 37.3011C21.1431 37.7983 21.1448 38.2607 21.2276 38.6882C21.3138 39.1125 21.4978 39.4555 21.7795 39.7173C22.0645 39.9759 22.4622 40.1051 22.9727 40.1051ZM32.748 33.3636L32.589 34.358H28.6316L28.7907 33.3636H32.748ZM30.2424 31.5341H31.4157L30.2026 38.8125C30.1496 39.1439 30.1578 39.3925 30.2275 39.5582C30.3004 39.7206 30.4097 39.83 30.5556 39.8864C30.7047 39.9394 30.8655 39.9659 31.0378 39.9659C31.1671 39.9659 31.2731 39.9593 31.356 39.946C31.4389 39.9295 31.5051 39.9162 31.5549 39.9062L31.6344 40.9602C31.5449 40.9901 31.4239 41.0199 31.2715 41.0497C31.1223 41.0829 30.9384 41.0994 30.7196 41.0994C30.3882 41.0994 30.0766 41.0282 29.785 40.8857C29.4933 40.7431 29.2696 40.526 29.1138 40.2344C28.958 39.9427 28.9166 39.5748 28.9895 39.1307L30.2424 31.5341ZM36.34 41.1591C35.6075 41.1591 35.0027 40.9967 34.5254 40.6719C34.0481 40.3438 33.715 39.8864 33.5261 39.2997C33.3372 38.7098 33.3074 38.0237 33.4366 37.2415C33.5659 36.4593 33.8227 35.7699 34.2072 35.1733C34.5917 34.5734 35.0706 34.1061 35.644 33.7713C36.2174 33.4332 36.8471 33.2642 37.5332 33.2642C37.9309 33.2642 38.3137 33.3305 38.6816 33.4631C39.0495 33.5956 39.3677 33.8111 39.6362 34.1094C39.9047 34.4044 40.0919 34.7955 40.198 35.2827C40.304 35.7699 40.2974 36.3698 40.1781 37.0824L40.0985 37.5795H34.2122L34.3713 36.5653H39.0645C39.1407 36.1345 39.1208 35.75 39.0048 35.4119C38.8921 35.0739 38.6949 34.8071 38.4132 34.6115C38.1348 34.416 37.7818 34.3182 37.3542 34.3182C36.9134 34.3182 36.5024 34.4375 36.1213 34.6761C35.7401 34.9115 35.4219 35.2098 35.1667 35.571C34.9115 35.929 34.7524 36.2936 34.6895 36.6648L34.5502 37.5398C34.4508 38.1728 34.4657 38.6766 34.595 39.0511C34.7276 39.4257 34.9579 39.6958 35.286 39.8615C35.6142 40.0239 36.0252 40.1051 36.519 40.1051C36.8339 40.1051 37.1239 40.062 37.389 39.9759C37.6542 39.8864 37.8912 39.7538 38.1 39.5781C38.3088 39.3991 38.4844 39.1771 38.627 38.9119L39.7008 39.2301C39.5185 39.6146 39.2617 39.9527 38.9302 40.2443C38.6021 40.5327 38.2176 40.758 37.7768 40.9205C37.3393 41.0795 36.8604 41.1591 36.34 41.1591ZM44.1976 30.8182L42.5073 41H41.334L43.0243 30.8182H44.1976ZM53.267 33.3636L53.108 34.358H48.9915L49.1506 33.3636H53.267ZM49.1108 41L50.5625 32.3097C50.6288 31.8722 50.7879 31.5076 51.0398 31.2159C51.295 30.9242 51.5982 30.7055 51.9496 30.5597C52.3042 30.4138 52.6638 30.3409 53.0284 30.3409C53.3168 30.3409 53.5471 30.3641 53.7195 30.4105C53.8951 30.4569 54.0227 30.5 54.1023 30.5398L53.6051 31.554C53.5455 31.5341 53.4659 31.5092 53.3665 31.4794C53.2704 31.4496 53.1378 31.4347 52.9688 31.4347C52.581 31.4347 52.286 31.5324 52.0838 31.728C51.8816 31.9235 51.7457 32.2102 51.6761 32.5881L50.2841 41H49.1108ZM56.4762 41.1591C55.7736 41.1591 55.1853 40.9917 54.7113 40.657C54.2373 40.3222 53.9026 39.8532 53.707 39.25C53.5148 38.6468 53.4833 37.9441 53.6126 37.142C53.7385 36.3598 53.9888 35.6787 54.3633 35.0987C54.7411 34.5154 55.2101 34.0646 55.7702 33.7464C56.3337 33.425 56.9535 33.2642 57.6296 33.2642C58.3323 33.2642 58.9189 33.4332 59.3896 33.7713C59.8635 34.1061 60.1983 34.5767 60.3938 35.1832C60.5894 35.7865 60.6225 36.4924 60.4933 37.3011C60.3673 38.0767 60.1138 38.7545 59.7326 39.3345C59.3548 39.9112 58.8858 40.3603 58.3256 40.6818C57.7688 41 57.1523 41.1591 56.4762 41.1591ZM56.4961 40.1051C57.033 40.1051 57.4987 39.9676 57.8931 39.6925C58.2908 39.4174 58.6123 39.0545 58.8576 38.6037C59.1062 38.1529 59.2736 37.6657 59.3597 37.142C59.4393 36.6449 59.436 36.1825 59.3498 35.755C59.2636 35.3241 59.0797 34.9777 58.7979 34.7159C58.5162 34.4508 58.1201 34.3182 57.6097 34.3182C57.0728 34.3182 56.6038 34.4574 56.2028 34.7358C55.805 35.0142 55.4835 35.3804 55.2383 35.8345C54.993 36.2886 54.829 36.7775 54.7461 37.3011C54.6665 37.7983 54.6682 38.2607 54.7511 38.6882C54.8372 39.1125 55.0212 39.4555 55.3029 39.7173C55.5879 39.9759 55.9857 40.1051 56.4961 40.1051ZM61.6777 41L62.9505 33.3636H64.084L63.8851 34.517H63.9647C64.1635 34.1392 64.4668 33.8326 64.8745 33.5973C65.2821 33.362 65.7147 33.2443 66.1721 33.2443C66.2615 33.2443 66.3693 33.246 66.4952 33.2493C66.6212 33.2493 66.7189 33.2543 66.7885 33.2642L66.5897 34.4574C66.5499 34.4474 66.4604 34.4325 66.3212 34.4126C66.182 34.3894 66.0328 34.3778 65.8738 34.3778C65.5025 34.3778 65.1595 34.4557 64.8446 34.6115C64.5298 34.764 64.2663 34.9761 64.0542 35.2479C63.842 35.5163 63.7061 35.8229 63.6465 36.1676L62.851 41H61.6777ZM71.1399 43.8636C70.9411 43.8636 70.7654 43.8471 70.6129 43.8139C70.4638 43.7841 70.361 43.7543 70.3047 43.7244L70.782 42.6903C71.0537 42.7633 71.2957 42.7848 71.5078 42.755C71.7232 42.7285 71.9271 42.6241 72.1193 42.4418C72.3149 42.2628 72.5187 41.9811 72.7308 41.5966L73.0589 41L71.5277 33.3636H72.7507L73.8445 39.4688H73.924L77.0462 33.3636H78.3686L73.6854 42.1037C73.4666 42.5114 73.2263 42.8445 72.9645 43.103C72.7027 43.3615 72.4193 43.5521 72.1143 43.6747C71.8094 43.8007 71.4846 43.8636 71.1399 43.8636ZM81.5231 41.1591C80.8204 41.1591 80.2321 40.9917 79.7582 40.657C79.2842 40.3222 78.9495 39.8532 78.7539 39.25C78.5617 38.6468 78.5302 37.9441 78.6594 37.142C78.7854 36.3598 79.0356 35.6787 79.4102 35.0987C79.788 34.5154 80.257 34.0646 80.8171 33.7464C81.3806 33.425 82.0004 33.2642 82.6765 33.2642C83.3791 33.2642 83.9658 33.4332 84.4364 33.7713C84.9104 34.1061 85.2451 34.5767 85.4407 35.1832C85.6362 35.7865 85.6694 36.4924 85.5401 37.3011C85.4142 38.0767 85.1606 38.7545 84.7795 39.3345C84.4016 39.9112 83.9326 40.3603 83.3725 40.6818C82.8157 41 82.1992 41.1591 81.5231 41.1591ZM81.543 40.1051C82.0799 40.1051 82.5456 39.9676 82.94 39.6925C83.3377 39.4174 83.6592 39.0545 83.9045 38.6037C84.1531 38.1529 84.3204 37.6657 84.4066 37.142C84.4862 36.6449 84.4828 36.1825 84.3967 35.755C84.3105 35.3241 84.1265 34.9777 83.8448 34.7159C83.5631 34.4508 83.167 34.3182 82.6566 34.3182C82.1197 34.3182 81.6507 34.4574 81.2496 34.7358C80.8519 35.0142 80.5304 35.3804 80.2852 35.8345C80.0399 36.2886 79.8758 36.7775 79.793 37.3011C79.7134 37.7983 79.7151 38.2607 79.7979 38.6882C79.8841 39.1125 80.0681 39.4555 80.3498 39.7173C80.6348 39.9759 81.0326 40.1051 81.543 40.1051ZM92.0542 37.8778L92.8098 33.3636H93.9831L92.7104 41H91.5371L91.7559 39.7074H91.6763C91.4377 40.0952 91.1046 40.425 90.677 40.6967C90.2495 40.9652 89.7473 41.0994 89.1706 41.0994C88.6934 41.0994 88.2857 40.995 87.9476 40.7862C87.6129 40.5741 87.3742 40.2559 87.2317 39.8317C87.0925 39.4041 87.0759 38.8655 87.182 38.2159L87.9973 33.3636H89.1706L88.3752 38.1364C88.2857 38.6932 88.3702 39.1373 88.6287 39.4688C88.8873 39.8002 89.2601 39.9659 89.7473 39.9659C90.039 39.9659 90.3472 39.8913 90.6721 39.7422C91.0002 39.593 91.2918 39.3643 91.5471 39.0561C91.8056 38.7479 91.9746 38.3551 92.0542 37.8778Z" fill="black"/>
</svg>
